<svg xmlns="http://www.w3.org/2000/svg" viewBox="0 0 800 800" width="800" height="800">
  <defs>
    <!-- Mask: white = visible, black = transparent cutout -->
    <mask id="cutout" maskUnits="userSpaceOnUse">
      <rect width="800" height="800" fill="white" />
      <!-- Rooster silhouette (cut-out area) -->
      <path
        d="M460 300c-10-25-40-40-40-40s5-15-5-25c-10-10-25-5-25-5s-5-15-20-15c-15 0-25 15-25 25 0 15 10 25 10 25s-40 70-40 120c0 30 15 70 15 70s5 15-10 20c-15 5-55 10-80 45-25 35-20 100 0 135 20 35 45 40 75 40s65-10 85-25c20-15 20-40 20-40s0-15 15-5c15 10 45 30 55 70 10 40 0 60 0 60s40-40 40-120c0-80-45-100-55-110-10-10-15-20-10-30 5 0 30 10 20-20-10-30-15-40-15-40s20 0 40 5z"
        fill="black"
        transform="translate(0,-80)"
      />
    </mask>
  </defs>

  <!-- Gold circle with rooster cut out -->
  <g mask="url(#cutout)">
    <circle cx="400" cy="340" r="230" fill="#b08a2e" />
  </g>

  <!-- Logo text -->
  <text
    x="400"
    y="610"
    font-family='"Brush Script MT", cursive'
    font-size="92"
    text-anchor="middle"
    fill="#b08a2e"
  >
    Golden Nest
  </text>
  <text
    x="400"
    y="680"
    font-family="Arial, Helvetica, sans-serif"
    font-size="42"
    letter-spacing="8"
    text-anchor="middle"
    fill="#b08a2e"
  >
    POULTRY
  </text>
</svg>